<?xml version="1.0" encoding="utf-8"?>
<svg version="1.1" id="レイヤー_1" xmlns="http://www.w3.org/2000/svg" xmlns:xlink="http://www.w3.org/1999/xlink" x="0px"
	 y="0px" viewBox="0 0 1280 640" style="enable-background:new 0 0 1280 640;" xml:space="preserve">
<style type="text/css">
	.st0{stroke:#000000;stroke-miterlimit:10;}
	.st1{fill:#040000;}
	.st2{fill:#FFFFFF;}
	.st3{fill:none;stroke:#FFFFFF;stroke-width:4;stroke-miterlimit:10;}
	.st4{font-family:'DejaVuSans';}
	.st5{font-size:112px;}
</style>
<rect y="160" class="st0" width="1280" height="320"/>
<g>
	<circle class="st1" cx="320" cy="320" r="241"/>
	<polygon class="st2" points="274.5,302.9 320,231.4 365.5,302.9 "/>
	<path class="st1" d="M403.5,339"/>
	<g>
		<polyline class="st2" points="380.7,337.1 259.3,337.1 268.6,351.7 371.4,351.7 380.7,337.1 "/>
		<polyline class="st2" points="355.4,376.9 345.7,392.1 294.3,392.1 284.6,376.9 "/>
	</g>
	<circle class="st3" cx="320" cy="320" r="227.7"/>
	<polygon class="st2" points="187.2,302.9 320,113.2 452.8,302.9 424.4,302.9 320,158.1 215.6,302.9 "/>
	<polygon class="st2" points="187.2,337.1 320,526.8 452.8,337.1 424.4,337.1 320,481.9 215.6,337.1 "/>
</g>
<text transform="matrix(1 0 0 1 591.7497 302.1689)" class="st2 st4 st5">Avern@k!s</text>
<text transform="matrix(1 0 0 1 681.7697 430.1689)" class="st2 st4 st5">ENGINE</text>
</svg>
